PathFileType  4	(X/Y/Z) C:\Users\hpl\Documents\MyRepositories\mocap-processing\Data\treadmill\running\
DataRate	CameraRate	NumFrames	NumMarkers	Units	OrigDataRate	OrigDataStartFrame	OrigNumFrames
  200.0		  200.0		    10		     46		 mm	  200.0	      295	    785
Frame#	Time	r_knee			r_shank_antsup			r_ankle			r_calc			r_5meta			r_toe			L_knee			L_shank_antsup			L_ankle			L_calc			L_5meta			L_toe			r_sh2			r_sh3			r_sh4			L_sh2			L_sh3			r_thigh1			r_thigh2			r_thigh3			r_thigh4			r_thigh5			L_thigh1			L_thigh2			L_thigh3			L_thigh4			r.ASIS			r.PSIS			L.ASIS			L.PSIS			C7			R_Shoulder			L_Shoulder			Sternum			R_humerus			R_elbow_med			R_elbow_lat			R_forearm			R_wrist_radius			R_wrist_ulna			L_humerus			L_elbow_med			L_elbow_lat			L_forearm			L_wrist_radius			L_wrist_ulna			
		X1	Y1	Z1	X2	Y2	Z2	X3	Y3	Z3	X4	Y4	Z4	X5	Y5	Z5	X6	Y6	Z6	X7	Y7	Z7	X8	Y8	Z8	X9	Y9	Z9	X10	Y10	Z10	X11	Y11	Z11	X12	Y12	Z12	X13	Y13	Z13	X14	Y14	Z14	X15	Y15	Z15	X16	Y16	Z16	X17	Y17	Z17	X18	Y18	Z18	X19	Y19	Z19	X20	Y20	Z20	X21	Y21	Z21	X22	Y22	Z22	X23	Y23	Z23	X24	Y24	Z24	X25	Y25	Z25	X26	Y26	Z26	X27	Y27	Z27	X28	Y28	Z28	X29	Y29	Z29	X30	Y30	Z30	X31	Y31	Z31	X32	Y32	Z32	X33	Y33	Z33	X34	Y34	Z34	X35	Y35	Z35	X36	Y36	Z36	X37	Y37	Z37	X38	Y38	Z38	X39	Y39	Z39	X40	Y40	Z40	X41	Y41	Z41	X42	Y42	Z42	X43	Y43	Z43	X44	Y44	Z44	X45	Y45	Z45	X46	Y46	Z46	

295	1.47000	690.034	150.572	513.265	580.147	146.178	467.230	255.013	177.488	493.497	260.454	241.964	568.219	130.986	161.572	415.741	149.482	216.664	362.047	932.594	451.068	540.051	974.544	452.553	422.328	990.569	391.681	102.026	946.241	328.733	81.575	1149.660	410.572	41.928	1185.921	358.888	87.980	460.706	154.510	466.108	576.781	130.958	539.713	463.819	150.708	548.016	883.547	446.211	415.345	914.146	415.643	307.051	834.961	134.362	701.490	800.359	155.687	592.139	752.643	133.834	571.354	728.991	97.666	721.508	699.854	127.528	611.057	922.292	467.452	784.533	973.732	437.521	657.399	820.332	499.182	740.529	870.123	455.611	617.774	872.268	162.822	997.119	664.022	215.941	1066.017	842.101	424.191	1018.472	652.462	329.775	1082.500	766.790	293.449	1551.658	828.190	109.426	1524.367	781.852	475.828	1525.460	912.370	315.246	1451.583	774.571	-1.299	1324.964	632.036	34.383	1225.717	663.636	-49.716	1254.299	818.846	18.967	1201.000	910.110	72.989	1158.206	897.273	42.975	1119.064	629.245	567.500	1357.596	499.711	495.256	1289.143	523.514	581.380	1331.337	640.528	585.687	1214.942	741.574	538.055	1170.946	700.074	571.373	1120.939
296	1.47500	700.713	149.542	507.132	590.477	145.642	463.596	266.427	176.721	499.221	272.889	241.152	574.476	141.385	161.231	423.402	159.512	217.059	368.985	930.888	451.190	536.742	969.906	451.841	417.306	975.671	390.068	96.934	929.225	327.643	78.094	1132.687	408.447	39.403	1170.113	351.467	78.197	470.948	154.213	465.701	589.028	130.214	536.218	476.110	150.048	547.335	878.797	446.684	412.308	906.686	415.655	305.916	840.696	135.101	698.434	809.099	155.661	588.009	762.056	133.636	565.565	734.551	96.921	715.246	707.939	127.332	604.224	924.417	468.573	783.174	974.154	437.475	655.162	819.968	496.157	739.179	869.758	456.034	615.493	871.009	162.320	993.755	663.016	215.236	1061.411	840.811	424.344	1015.743	651.457	329.937	1080.731	767.948	295.031	1547.399	827.500	109.945	1520.866	783.245	477.667	1520.328	912.901	315.145	1447.073	770.556	-0.219	1321.742	628.338	36.143	1224.352	658.795	-47.878	1253.029	813.446	16.935	1193.257	904.844	69.658	1148.024	890.077	39.585	1109.602	633.282	569.876	1349.395	503.170	499.167	1280.811	527.789	585.189	1322.679	645.117	588.192	1206.589	745.857	539.423	1163.213	704.820	573.026	1112.864
297	1.48000	711.482	148.510	501.191	601.222	144.908	459.791	278.640	176.136	504.086	285.805	240.303	579.738	153.065	160.524	429.824	169.907	217.006	375.231	928.818	451.138	532.822	964.553	451.317	411.852	959.393	387.385	93.977	910.271	326.035	77.097	1111.767	404.737	40.752	1151.482	343.631	69.507	482.133	154.552	464.954	601.614	129.473	532.496	488.968	149.107	546.364	873.375	447.352	409.332	898.682	415.892	304.764	846.400	134.888	695.079	817.706	155.460	583.939	771.735	133.245	560.097	740.101	96.007	709.006	716.759	125.979	597.426	927.311	470.107	780.479	973.966	438.099	651.714	819.616	493.122	737.668	869.479	457.123	611.530	869.197	161.284	989.960	662.105	214.785	1056.864	839.546	424.616	1012.841	650.445	330.113	1078.915	768.351	296.380	1543.338	826.835	110.385	1517.105	785.014	479.617	1515.338	913.431	315.013	1442.263	766.241	1.142	1318.297	624.274	37.896	1222.737	653.976	-46.250	1251.704	808.219	15.425	1186.413	899.254	66.149	1137.526	882.428	35.943	1099.862	637.236	572.300	1340.897	506.951	503.252	1272.386	532.412	589.023	1313.728	649.908	590.717	1197.841	750.208	540.746	1155.211	709.615	574.758	1104.641
298	1.48500	722.482	147.469	495.494	612.682	143.473	455.581	291.550	175.729	508.030	299.197	239.513	584.258	164.231	159.213	435.139	181.341	216.283	380.081	927.177	450.616	528.065	958.593	450.495	406.127	942.383	383.274	94.648	889.302	325.697	75.175	1091.720	401.410	41.157	1131.442	337.670	61.813	493.681	154.082	463.819	614.459	128.875	528.304	502.231	148.261	544.981	867.640	447.841	406.463	890.132	416.319	303.592	852.219	134.522	692.092	826.686	155.298	580.087	781.535	132.449	554.997	745.937	95.062	702.953	725.336	125.639	590.842	929.331	471.080	776.540	973.370	438.095	647.282	819.671	492.156	735.076	868.023	457.436	608.005	868.049	160.807	986.362	660.760	213.843	1052.074	838.431	424.809	1009.807	649.426	330.303	1077.054	768.761	297.401	1539.057	826.003	110.968	1513.158	786.702	481.502	1509.925	914.067	314.796	1437.110	761.868	2.698	1314.681	620.154	39.917	1221.239	648.960	-44.540	1250.156	803.146	13.897	1179.691	893.059	62.356	1126.834	874.292	32.042	1089.888	641.477	574.897	1332.182	510.792	507.497	1263.727	537.041	593.067	1304.486	654.961	593.224	1188.782	755.134	542.025	1146.876	714.792	576.228	1095.913
299	1.49000	734.095	146.519	490.362	624.507	143.639	451.678	305.156	175.144	511.111	312.923	238.716	587.656	178.671	158.080	438.616	193.926	215.337	383.834	924.278	450.900	522.997	953.935	449.127	399.915	920.437	376.709	94.870	866.496	320.222	69.309	1069.727	399.662	41.233	1108.196	334.328	56.889	505.729	153.949	462.281	627.825	127.252	524.100	515.962	147.221	543.189	863.040	448.251	403.745	881.038	416.901	302.399	858.040	133.997	689.294	835.555	154.779	576.653	791.311	131.639	550.112	751.495	94.293	697.190	734.201	125.448	584.497	930.393	471.358	771.812	971.841	437.421	642.056	819.164	492.318	731.518	865.953	457.937	604.075	866.626	160.348	982.781	658.967	212.989	1047.216	837.128	424.729	1006.561	647.529	330.192	1072.165	769.177	298.483	1534.820	824.883	111.433	1509.142	788.632	483.197	1504.412	914.757	314.525	1431.851	757.324	4.388	1310.802	616.089	41.633	1219.222	643.969	-42.708	1248.617	797.516	12.534	1172.391	886.352	58.365	1116.037	865.821	27.962	1079.947	645.964	577.625	1323.168	515.027	511.602	1254.868	541.914	597.098	1294.911	660.265	595.795	1179.627	760.052	543.169	1138.304	720.022	577.781	1087.160
300	1.49500	745.677	145.853	485.050	636.572	144.159	447.296	319.272	174.677	513.125	326.685	237.566	589.743	192.821	156.774	441.224	212.403	215.526	390.080	922.089	450.393	517.669	951.170	446.334	394.011	896.587	368.758	93.382	845.041	312.880	65.807	1047.497	397.264	41.208	1086.223	332.136	57.600	518.380	153.429	460.455	641.452	126.105	519.703	529.998	146.069	541.132	860.513	447.719	402.333	871.400	417.601	301.185	863.974	133.373	686.684	844.620	154.214	573.429	801.291	130.619	545.674	757.256	93.542	691.564	742.940	125.076	578.625	930.263	470.345	766.446	970.223	437.255	635.870	818.522	493.781	727.521	863.852	457.602	599.423	865.040	159.514	979.524	657.050	212.150	1041.741	835.786	424.402	1003.308	645.268	330.057	1066.582	769.564	299.968	1530.451	823.775	111.857	1505.173	790.626	484.834	1498.710	915.552	314.236	1426.259	752.516	6.373	1306.965	611.756	43.476	1217.229	639.043	-41.550	1247.076	791.413	10.768	1165.108	879.261	54.201	1105.127	856.630	23.610	1069.850	650.723	580.349	1313.817	519.374	515.709	1245.595	546.958	601.226	1285.196	665.875	598.258	1170.156	765.088	544.451	1129.498	725.606	579.042	1078.133
301	1.50000	757.709	145.289	480.487	649.833	142.189	443.516	333.794	174.023	514.348	341.015	236.465	591.267	207.483	155.379	442.680	221.896	214.598	390.848	921.231	448.174	512.337	949.037	442.275	388.771	876.115	362.846	93.522	823.005	311.267	67.759	1025.433	395.057	41.241	1064.645	328.582	56.691	531.453	153.236	458.173	655.614	124.572	515.360	544.474	144.789	538.732	858.990	447.047	401.575	861.218	418.386	299.947	869.791	132.466	684.624	853.722	153.408	570.632	811.383	129.715	541.868	762.982	93.026	686.437	752.008	125.008	573.008	928.815	468.134	760.514	968.905	438.163	629.569	817.845	494.617	722.722	861.697	456.241	594.363	862.880	159.014	974.461	654.213	211.022	1036.334	834.571	424.032	999.946	643.385	329.895	1061.597	769.634	301.331	1525.276	822.569	112.247	1501.199	792.854	486.538	1492.841	916.277	313.854	1420.557	747.583	8.699	1302.931	607.554	45.186	1215.061	633.850	-39.626	1245.266	784.180	8.814	1157.464	871.771	48.455	1093.662	847.047	19.232	1059.770	655.551	582.850	1304.186	523.506	519.781	1236.279	552.446	605.427	1275.269	671.618	600.701	1160.433	770.369	545.550	1120.824	731.544	580.261	1069.069
302	1.50500	770.414	144.833	476.332	663.379	141.776	439.448	348.563	173.432	514.533	355.108	235.608	591.883	222.960	153.916	442.811	236.658	213.525	391.316	920.213	446.275	507.642	945.106	437.726	383.737	857.525	360.428	94.694	802.121	307.765	68.175	1003.286	394.394	41.383	1044.099	329.321	53.347	545.132	153.227	455.733	669.865	123.384	510.936	559.175	143.463	535.873	856.944	447.144	400.792	850.494	419.219	298.686	875.511	131.838	682.846	862.832	152.195	568.437	821.484	127.582	538.074	768.683	92.351	681.759	761.118	124.803	568.060	926.525	465.767	754.638	967.651	438.867	623.226	815.975	494.530	717.637	858.219	453.759	590.747	860.533	158.610	969.754	651.937	211.001	1031.225	833.034	423.242	996.936	641.278	329.185	1057.024	769.644	302.482	1520.781	821.267	112.566	1497.297	795.027	488.358	1487.091	917.133	313.376	1414.748	742.430	11.139	1299.073	602.991	47.240	1213.008	628.737	-37.582	1243.379	777.378	6.664	1150.037	863.597	43.674	1082.618	837.079	14.705	1049.809	660.745	585.353	1294.583	528.650	524.473	1226.788	558.081	609.494	1265.128	677.609	603.126	1150.688	775.889	546.465	1112.377	737.572	581.282	1059.965
303	1.51000	783.331	144.490	472.755	677.367	141.518	435.691	363.582	172.803	513.928	369.068	234.598	591.727	238.972	152.326	441.593	252.374	210.825	389.837	919.023	443.804	503.521	941.339	432.694	382.005	837.057	358.788	96.104	780.490	306.115	68.782	981.126	394.002	41.419	1021.452	329.205	53.957	559.371	152.660	453.095	684.335	121.421	506.807	573.844	142.373	533.053	853.348	447.764	400.207	839.226	420.065	297.398	881.247	131.465	681.753	872.379	151.445	567.328	831.820	126.676	535.668	774.390	91.913	677.730	770.614	124.177	563.977	922.043	462.383	748.676	963.415	438.399	616.684	812.644	491.927	712.897	854.543	450.653	586.158	858.032	158.218	965.744	649.437	211.352	1027.035	831.153	422.185	994.255	638.984	328.127	1053.119	769.368	303.853	1516.239	820.146	112.897	1493.425	797.373	490.112	1481.301	918.003	312.839	1408.886	737.343	13.928	1295.156	598.662	49.151	1210.682	623.325	-35.461	1241.540	770.370	4.531	1142.540	854.808	38.697	1071.638	826.497	10.085	1040.000	666.113	587.599	1284.858	533.691	528.672	1217.200	564.125	613.641	1255.040	684.043	605.511	1140.998	781.673	547.276	1103.656	744.104	582.301	1051.121
304	1.51500	797.029	143.162	469.964	691.890	141.582	432.297	378.669	171.933	512.476	382.785	233.916	591.225	255.132	150.931	438.683	268.417	210.086	387.488	917.519	441.208	500.144	935.218	428.810	381.826	816.340	357.860	97.069	759.209	306.089	69.766	959.331	393.678	41.509	1000.089	327.748	53.559	573.914	152.743	450.225	699.071	120.216	502.956	588.879	140.624	529.934	847.548	446.522	401.447	827.417	420.890	296.084	886.838	130.723	681.486	881.861	150.486	566.969	842.316	125.724	534.141	780.187	91.504	674.479	780.358	123.554	560.533	919.057	459.696	743.787	959.994	436.150	611.604	809.643	489.101	709.133	849.989	446.505	582.463	855.241	157.883	961.921	646.918	211.974	1024.250	829.061	421.200	991.698	636.852	327.133	1050.531	769.268	304.746	1512.290	818.948	113.007	1489.784	799.771	491.882	1475.787	918.815	312.093	1403.167	732.176	16.454	1291.345	594.297	51.020	1208.630	618.153	-33.351	1239.831	762.960	2.419	1135.074	845.627	33.123	1060.857	815.593	5.427	1030.551	671.686	589.549	1275.170	539.122	533.124	1207.533	570.485	617.698	1244.902	690.858	607.585	1131.523	788.155	547.663	1095.535	750.973	582.951	1042.390
